<svg width="1055" height="200" viewBox="0 0 1055 200" fill="none" xmlns="http://www.w3.org/2000/svg">
<path d="M87.1111 127.053C89.112 119.407 103.117 116.549 112.895 119.407C129.445 124.946 146.885 130.205 164.981 135.053C199.525 144.31 232.743 151.076 262.784 155.323C244.865 182.252 214.241 200 179.47 200C159.662 200 138.733 193.443 122.125 182.076C99.9654 166.908 83.4458 141.059 87.1111 127.053Z" fill="white"/>
<path d="M179.471 0C224.702 5.99601e-05 262.918 30.0298 275.272 71.2392C291.167 77.6701 305.439 84.3 317.628 90.8849C332.825 99.0957 344.984 107.343 353.003 115.184C360.754 122.762 365.808 131.136 363.627 139.276C361.446 147.417 352.882 152.141 342.381 154.829C331.516 157.609 316.861 158.673 299.594 158.186C288.428 157.87 276.074 156.901 262.804 155.291C264.423 152.857 265.781 150.64 267.185 148.062C278.868 149.392 289.918 149.909 299.821 150.19C316.759 150.668 330.569 149.594 340.399 147.079C350.59 144.47 354.952 140.737 355.899 137.205C356.845 133.672 354.933 128.26 347.41 120.905C340.156 113.812 328.734 105.978 313.825 97.923C303.298 92.2346 291.13 86.49 277.639 80.8603C278.84 87.055 279.471 93.4534 279.471 99.999C279.471 117.403 275.024 133.769 267.205 148.022C237.188 144.58 202.802 138.009 166.775 128.356C148.63 123.495 130.632 118.021 112.9 111.838C94.0504 105.013 79.6078 91.0383 83.1094 73.0309C85.6225 60.107 92.2714 46.2907 102.676 34.1918C88.7553 32.4381 75.8614 31.3937 64.3156 31.0674C47.3773 30.5889 33.5673 31.6617 23.7384 34.1771C13.5466 36.7856 9.18387 40.5169 8.2369 44.0493C7.29041 47.582 9.20201 52.9955 16.7248 60.3509C22.1272 65.6332 29.8423 71.3259 39.5867 77.2153C41.4595 78.1747 43.398 79.2125 45.3713 80.3191C58.562 87.716 68.3366 95.3506 67.2045 97.371C66.071 99.3907 54.4597 95.0315 41.269 87.6346C36.3147 84.8563 31.8417 82.0453 28.248 79.5101C21.3796 74.9548 15.6097 70.4496 11.1316 66.071C3.38117 58.4929 -1.67122 50.119 0.510098 41.9782C2.69194 33.8383 11.2536 29.1144 21.7542 26.4269C32.6192 23.6461 47.2739 22.5822 64.5413 23.07C77.9706 23.4494 93.1187 24.7742 109.51 27.0228C126.07 11.3403 149.73 5.82196e-05 179.471 0Z" fill="white"/>
<path d="M557.712 51.8492V148.5H539.114L501.772 87.5807L492.4 70.4471H492.253L492.839 86.1163V148.5H478.488V51.8492H496.939L534.135 112.622L543.654 130.048H543.8L543.215 114.233V51.8492H557.712ZM586.316 148.5V51.8492H656.315V65.3217H601.985V93.1454H644.453V106.325H601.985V135.027H658.365V148.5H586.316ZM751.171 51.8492L716.611 111.451V148.5H700.942V111.451L666.528 51.8492H683.954L701.234 83.041L708.849 97.3922L716.464 83.041L733.598 51.8492H751.171ZM843.729 51.8492V148.5H825.131L787.789 87.5807L778.417 70.4471H778.27L778.856 86.1163V148.5H764.505V51.8492H782.956L820.152 112.622L829.671 130.048H829.817L829.232 114.233V51.8492H843.729ZM952.583 148.5H936.035L926.809 123.166H886.245L877.019 148.5H860.911L897.375 51.8492H916.119L952.583 148.5ZM890.638 110.425H922.416L906.6 65.3217L890.638 110.425ZM1009.11 51.8492C1019.46 51.8492 1027.66 54.4363 1033.72 59.6105C1039.87 64.7847 1042.94 71.7651 1042.94 80.5515C1042.94 89.6308 1039.87 96.66 1033.72 101.639C1027.66 106.52 1019.46 108.961 1009.11 108.961L1007.65 109.84H985.245V148.5H969.722V51.8492H1009.11ZM1007.94 96.8064C1014.29 96.8064 1018.97 95.5373 1022 92.999C1025.13 90.3631 1026.69 86.3603 1026.69 80.9908C1026.69 75.719 1025.13 71.7651 1022 69.1291C1018.97 66.4932 1014.29 65.1753 1007.94 65.1753H985.245V96.8064H1007.94ZM1017.17 100.028L1048.65 148.5H1030.64L1003.7 106.179L1017.17 100.028Z" fill="white"/>
</svg>
